<?xml version="1.0" encoding="utf-8"?>
<!-- Generator: Adobe Illustrator 24.1.1, SVG Export Plug-In . SVG Version: 6.00 Build 0)  -->
<svg version="1.1" id="Layer_1" xmlns="http://www.w3.org/2000/svg" xmlns:xlink="http://www.w3.org/1999/xlink" x="0px" y="0px"
	 viewBox="0 0 512 512" style="enable-background:new 0 0 512 512;" xml:space="preserve">
<style type="text/css">
	.st0{fill-rule:evenodd;clip-rule:evenodd;}
</style>
<g>
	<path class="st0" d="M489.1,2.8c4.3,3,6.9,7.9,6.9,13.2v480c0,8.8-7.2,16-16,16h-96c-8.8,0-16-7.2-16-16v-48h-32v48
		c0,8.8-7.2,16-16,16H32c-8.8,0-16-7.2-16-16V304c0-7.8,5.7-14.5,13.4-15.8L208,258.5V112c0-6.7,4.1-12.6,10.4-15l256-96
		C479.3-0.8,484.8-0.1,489.1,2.8L489.1,2.8z M240,123.1V272c0,7.8-5.7,14.5-13.4,15.8L48,317.5V480h256v-48c0-8.9,7.2-16,16-16h64
		c8.8,0,16,7.1,16,16v48h64V39.1L240,123.1z"/>
	<rect x="208" y="272" class="st0" width="32" height="224"/>
	<path d="M80,352h32v32H80V352z M144,352h32v32h-32V352z M80,416h32v32H80V416z M144,416h32v32h-32V416z M336,96h32v32h-32V96z
		 M400,96h32v32h-32V96z M272,160h32v32h-32V160z M336,160h32v32h-32V160z M400,160h32v32h-32V160z M336,224h32v32h-32V224z
		 M400,224h32v32h-32V224z M272,224h32v32h-32V224z M272,288h32v32h-32V288z M336,288h32v32h-32V288z M400,288h32v32h-32V288z
		 M272,352h32v32h-32V352z M336,352h32v32h-32V352z M400,352h32v32h-32V352z"/>
</g>
</svg>
